# xmcd CD database file
#
# Track frame offsets:
#	187
#	31255
#	63832
#	96000
#	124880
#	148647
#	163972
#	185537
#	197875
#	220675
#	246022
#	256652
#	276187
#
# Disc length: 3695 seconds
#
# Revision: 6
# Processed by: cddbd v1.5.2PL0 Copyright (c) Steve Scherf et al.
# Submitted via: CDex 1.51
#
DISCID=bb0e6d0d
DTITLE=Anthrax - Persistence Of Time
DYEAR=1990
DGENRE=Heavy Metal
TTITLE0=Time
TTITLE1=Blood
TTITLE2=Keep It In The Family
TTITLE3=In My World
TTITLE4=Gridlock
TTITLE5=Intro To Reality
TTITLE6=Belly Of The Beast
TTITLE7=Got The Time
TTITLE8=H8 Red
TTITLE9=One Man Stands
TTITLE10=Protest And Survive
TTITLE11=Discharge
TTITLE12="Backwards Message Quiz"
EXTD=POLYSTAR (JAPAN):90.9.1\n\nTrack 11-Japan only Bonus Track YEAR: 1990
EXTT0=
EXTT1=
EXTT2=
EXTT3=
EXTT4=
EXTT5=
EXTT6=
EXTT7=
EXTT8=
EXTT9=
EXTT10=
EXTT11=
EXTT12=
PLAYORDER=
